<svg width="1292" height="1148" viewBox="0 0 1292 1148" fill="none" xmlns="http://www.w3.org/2000/svg">
<path d="M1010.03 530C863.676 530 745.031 411.355 745.031 265V0H1010.03C1156.39 0 1275.03 118.645 1275.03 265V530H1010.03Z" fill="#CFFCF4"/>
<path d="M0.03125 265C0.03125 118.645 118.676 0 265.031 0L530.031 0V265C530.031 411.355 411.387 530 265.031 530H0.03125L0.03125 265Z" fill="#CFFCF4"/>
<path d="M281.031 616.804C427.387 616.804 546.031 735.448 546.031 881.804V1146.8H281.031C134.676 1146.8 16.0313 1028.16 16.0313 881.804L16.0313 616.804H281.031Z" fill="#CFFCF4"/>
<path d="M1291.03 882.196C1291.03 1028.55 1172.39 1147.2 1026.03 1147.2H761.031V882.196C761.031 735.841 879.676 617.196 1026.03 617.196H1291.03V882.196Z" fill="#CFFCF4"/>
</svg>
